<svg width="180" height="54" viewBox="0 0 180 54" fill="none" xmlns="http://www.w3.org/2000/svg">
<g clip-path="url(#clip0_33_23)">
<path d="M178.854 47.0322C178.854 47.7034 178.721 48.368 178.464 48.9879C178.207 49.6079 177.83 50.1712 177.355 50.6455C176.88 51.1199 176.316 51.496 175.695 51.7523C175.074 52.0087 174.409 52.1402 173.737 52.1395H6.31042C4.95342 52.141 3.65141 51.6037 2.69074 50.6459C1.73006 49.6882 1.18939 48.3883 1.18762 47.0322V6.30296C1.18939 4.94626 1.72985 3.64572 2.69033 2.68688C3.65081 1.72805 4.9528 1.18932 6.31042 1.18896H173.736C174.408 1.18896 175.073 1.32125 175.694 1.57827C176.315 1.83529 176.879 2.212 177.354 2.6869C177.829 3.1618 178.206 3.72557 178.463 4.34602C178.72 4.96647 178.852 5.63144 178.852 6.30296L178.854 47.0322Z" fill="white"/>
<path d="M173.737 53.3275H6.31042C4.63875 53.3272 3.03549 52.6641 1.85244 51.4839C0.669388 50.3036 0.00318073 48.7026 0 47.032L0 6.3041C0.002473 4.63273 0.668241 3.03059 1.85125 1.84913C3.03427 0.667664 4.63792 0.00336382 6.31042 0.00195312L173.736 0.00195313C175.408 0.00406773 177.012 0.668594 178.194 1.8499C179.377 3.03121 180.043 4.63295 180.047 6.3041V47.032C180.049 50.5045 177.214 53.3275 173.737 53.3275Z" fill="#A6A6A6"/>
<path d="M178.854 47.0322C178.854 47.7034 178.721 48.368 178.464 48.9879C178.207 49.6079 177.83 50.1712 177.355 50.6455C176.88 51.1199 176.316 51.496 175.695 51.7523C175.074 52.0087 174.409 52.1402 173.737 52.1395H6.31042C4.95342 52.141 3.65141 51.6037 2.69074 50.6459C1.73006 49.6882 1.18939 48.3883 1.18762 47.0322V6.30296C1.18939 4.94626 1.72985 3.64572 2.69033 2.68688C3.65081 1.72805 4.9528 1.18932 6.31042 1.18896H173.736C174.408 1.18896 175.073 1.32125 175.694 1.57827C176.315 1.83529 176.879 2.212 177.354 2.6869C177.829 3.1618 178.206 3.72557 178.463 4.34602C178.72 4.96647 178.852 5.63144 178.852 6.30296L178.854 47.0322Z" fill="black"/>
<path d="M40.2031 26.3842C40.1644 22.0863 43.7246 19.9953 43.8874 19.898C41.8711 16.9603 38.7459 16.5589 37.6477 16.5269C35.0229 16.2508 32.4769 18.0964 31.1398 18.0964C29.776 18.0964 27.717 16.5535 25.4979 16.5989C22.6423 16.6429 19.9708 18.2951 18.5056 20.8608C15.4818 26.0921 17.737 33.7798 20.634 38.0083C22.0831 40.0806 23.7765 42.3916 25.993 42.3102C28.1614 42.2222 28.9714 40.93 31.5881 40.93C34.1809 40.93 34.9415 42.3102 37.202 42.2582C39.5292 42.2222 40.9944 40.1779 42.3928 38.0883C44.0675 35.716 44.7401 33.3771 44.7668 33.257C44.7134 33.2384 40.2485 31.5342 40.2031 26.3842ZM35.933 13.7452C37.0992 12.2877 37.8972 10.3047 37.6757 8.29248C35.9877 8.36716 33.8767 9.4593 32.661 10.8848C31.5855 12.141 30.6247 14.1999 30.8729 16.1362C32.7691 16.2775 34.716 15.18 35.933 13.7452Z" fill="white"/>
<path d="M173.737 0.00244141H84.0584L119.184 53.328H173.737C175.409 53.3266 177.013 52.6627 178.196 51.4818C179.379 50.3009 180.045 48.6994 180.048 47.0285V6.30459C180.045 4.63333 179.379 3.03139 178.196 1.85C177.013 0.668617 175.41 0.00420419 173.737 0.00244141V0.00244141Z" fill="url(#paint0_linear_33_23)"/>
<path d="M71.6111 42.0129H68.5806L66.9206 36.8002H61.1506L59.5694 42.0129H56.619L62.3369 24.2666H65.8678L71.6111 42.0129ZM66.4202 34.6133L64.919 29.9793C64.7602 29.5059 64.4613 28.3911 64.0236 26.6362H63.9702C63.7941 27.391 63.5125 28.5058 63.1269 29.9793L61.651 34.6133H66.4202ZM86.2869 35.4574C86.2869 37.6337 85.6958 39.3539 84.5121 40.6167C83.4526 41.7409 82.1356 42.3023 80.565 42.3023C78.8689 42.3023 77.6493 41.6982 76.9087 40.4874V47.2016H74.0637V33.4225C74.0637 32.0556 74.0277 30.6541 73.9583 29.2166H76.4603L76.6191 31.2448H76.6725C77.6213 29.7166 79.0611 28.9525 80.9933 28.9525C82.5039 28.9525 83.7649 29.5486 84.7737 30.7421C85.7812 31.9383 86.2869 33.5091 86.2869 35.4574ZM83.3886 35.5614C83.3886 34.3159 83.1083 33.2891 82.5452 32.4797C81.9301 31.6382 81.1041 31.2168 80.0686 31.2168C79.3667 31.2168 78.7288 31.4515 78.159 31.9143C77.5879 32.381 77.2143 32.9904 77.0395 33.7452C76.9614 34.0274 76.9171 34.3179 76.9073 34.6106V36.7456C76.9073 37.675 77.1929 38.4604 77.764 39.1032C78.3352 39.7433 79.0771 40.0646 79.9898 40.0646C81.0614 40.0646 81.8954 39.6499 82.4918 38.8272C83.0897 38.0017 83.3886 36.9136 83.3886 35.5614ZM101.015 35.4574C101.015 37.6337 100.424 39.3539 99.24 40.6167C98.1792 41.7409 96.8634 42.3023 95.2915 42.3023C93.5955 42.3023 92.3758 41.6982 91.6352 40.4874V47.2016H88.7903V33.4225C88.7903 32.0556 88.7542 30.6541 88.6848 29.2166H91.1869L91.3457 31.2448H91.399C92.3465 29.7166 93.7863 28.9525 95.7198 28.9525C97.2291 28.9525 98.4901 29.5486 99.5016 30.7421C100.508 31.9383 101.015 33.5091 101.015 35.4574ZM98.1151 35.5614C98.1151 34.3159 97.8335 33.2891 97.2704 32.4797C96.6553 31.6382 95.8319 31.2168 94.7964 31.2168C94.0945 31.2168 93.4567 31.4515 92.8842 31.9143C92.3131 32.381 91.9408 32.9904 91.766 33.7452C91.6793 34.0972 91.6325 34.3839 91.6325 34.6106V36.7456C91.6325 37.675 91.9194 38.4604 92.4879 39.1032C93.059 39.7419 93.801 40.0646 94.7164 40.0646C95.7892 40.0646 96.6232 39.6499 97.2184 38.8272C97.8162 38.0017 98.1151 36.9136 98.1151 35.5614ZM117.481 37.0349C117.481 38.5458 116.953 39.7739 115.903 40.7221C114.747 41.7569 113.134 42.2756 111.066 42.2756C109.155 42.2756 107.623 41.9076 106.467 41.1701L107.125 38.8005C108.373 39.5392 109.743 39.9073 111.235 39.9073C112.308 39.9073 113.142 39.6646 113.737 39.1832C114.334 38.7005 114.635 38.0551 114.635 37.2496C114.635 36.5282 114.386 35.9241 113.896 35.432C113.403 34.9413 112.589 34.4839 111.446 34.0639C108.337 32.9051 106.781 31.2102 106.781 28.9805C106.781 27.5244 107.331 26.3322 108.427 25.4001C109.524 24.4693 110.979 24.0039 112.788 24.0039C114.404 24.0039 115.751 24.2853 116.82 24.8467L116.106 27.1643C115.099 26.6202 113.964 26.3482 112.694 26.3482C111.69 26.3482 110.903 26.5949 110.34 27.0856C109.866 27.5244 109.626 28.0591 109.626 28.6938C109.626 29.3939 109.899 29.9753 110.444 30.4314C110.916 30.8515 111.778 31.3088 113.024 31.7996C114.554 32.4157 115.677 33.1331 116.397 33.9572C117.121 34.7813 117.481 35.8094 117.481 37.0349ZM126.912 31.3502H123.776V37.563C123.776 39.1432 124.328 39.9313 125.436 39.9313C125.944 39.9313 126.366 39.8886 126.699 39.7993L126.778 41.9582C126.218 42.1676 125.48 42.2729 124.566 42.2729C123.442 42.2729 122.564 41.9302 121.93 41.2448C121.299 40.5594 120.982 39.4112 120.982 37.795V31.3449H119.113V29.2112H120.982V26.8683L123.776 26.0255V29.2112H126.912V31.3502ZM141.032 35.5094C141.032 37.4763 140.469 39.0912 139.346 40.354C138.17 41.6542 136.606 42.3023 134.657 42.3023C132.775 42.3023 131.279 41.6795 130.164 40.4354C129.048 39.1885 128.49 37.6177 128.49 35.7228C128.49 33.7398 129.067 32.1156 130.216 30.8528C131.367 29.5886 132.918 28.9565 134.867 28.9565C136.746 28.9565 138.255 29.5806 139.398 30.8261C140.489 32.0343 141.032 33.5945 141.032 35.5094ZM138.083 35.5747C138.083 34.4026 137.83 33.3971 137.321 32.5557C136.725 31.5395 135.871 31.0315 134.765 31.0315C133.625 31.0315 132.751 31.5395 132.156 32.5557C131.646 33.3971 131.393 34.4199 131.393 35.6281C131.393 36.8016 131.646 37.8097 132.156 38.6485C132.771 39.6646 133.629 40.1727 134.741 40.1727C135.828 40.1727 136.681 39.6539 137.297 38.6231C137.82 37.7617 138.083 36.7496 138.083 35.5747ZM150.284 31.7169C149.988 31.6635 149.688 31.6372 149.387 31.6382C148.386 31.6382 147.612 32.0143 147.068 32.7717C146.596 33.4385 146.358 34.2812 146.358 35.2987V42.0129H143.513V33.2464C143.516 31.9031 143.488 30.56 143.43 29.2179H145.908L146.012 31.6662H146.091C146.393 30.8248 146.865 30.146 147.514 29.638C148.107 29.194 148.828 28.9536 149.57 28.9525C149.833 28.9525 150.07 28.9712 150.281 29.0046L150.284 31.7169ZM163.007 35.0093C163.015 35.4415 162.98 35.8734 162.903 36.2988H154.368C154.4 37.563 154.814 38.5311 155.607 39.1979C156.326 39.7926 157.256 40.0913 158.398 40.0913C159.662 40.0913 160.815 39.8913 161.852 39.4872L162.298 41.4595C161.086 41.9876 159.655 42.2503 158.005 42.2503C156.019 42.2503 154.461 41.6662 153.326 40.5007C152.195 39.3339 151.628 37.7657 151.628 35.8014C151.628 33.8732 152.155 32.2663 153.21 30.9848C154.315 29.6166 155.808 28.9325 157.687 28.9325C159.533 28.9325 160.93 29.6166 161.879 30.9848C162.63 32.0689 163.007 33.4131 163.007 35.0093ZM160.295 34.2719C160.315 33.4278 160.128 32.701 159.742 32.0863C159.25 31.2942 158.492 30.8995 157.476 30.8995C156.546 30.8995 155.788 31.2848 155.212 32.0583C154.738 32.673 154.457 33.4118 154.37 34.2692L160.295 34.2719Z" fill="white"/>
<path d="M60.33 17.9926C59.5387 17.9926 58.8541 17.9539 58.2843 17.8886V9.3088C59.0813 9.18577 59.8866 9.12514 60.6929 9.12744C63.9556 9.12744 65.4581 10.7316 65.4581 13.3467C65.4581 16.363 63.6833 17.9926 60.33 17.9926ZM60.8077 10.2276C60.3673 10.2276 59.9924 10.2543 59.6815 10.3183V16.8404C59.8496 16.8671 60.1725 16.8791 60.6262 16.8791C62.7639 16.8791 63.9809 15.663 63.9809 13.3853C63.9809 11.3544 62.88 10.2276 60.8077 10.2276ZM70.1406 18.0579C68.3017 18.0579 67.1101 16.6858 67.1101 14.8228C67.1101 12.8813 68.3271 11.4971 70.2446 11.4971C72.0568 11.4971 73.2751 12.8039 73.2751 14.7202C73.2751 16.6858 72.0194 18.0579 70.1406 18.0579ZM70.1939 12.5185C69.1838 12.5185 68.5366 13.4627 68.5366 14.7828C68.5366 16.0777 69.1971 17.0218 70.1806 17.0218C71.164 17.0218 71.8246 16.0123 71.8246 14.7562C71.8246 13.476 71.1774 12.5185 70.1939 12.5185ZM83.7609 11.6264L81.7926 17.9152H80.5102L79.6949 15.1842C79.4922 14.5162 79.3234 13.8384 79.1892 13.1533H79.1625C79.0597 13.8387 78.8649 14.5255 78.6581 15.1842L77.7907 17.9152H76.495L74.6429 11.6264H76.08L76.7926 14.6161C76.9607 15.3282 77.1022 16.0003 77.2196 16.6351H77.2463C77.349 16.1057 77.5172 15.4443 77.764 14.6295L78.6581 11.6278H79.7977L80.653 14.5655C80.8599 15.2776 81.028 15.9763 81.1588 16.6364H81.1961C81.2869 15.9897 81.4297 15.3029 81.6231 14.5655L82.3878 11.6278L83.7609 11.6264ZM91.0067 17.9152H89.6082V14.3041C89.6082 13.192 89.1812 12.6346 88.3392 12.6346C87.5106 12.6346 86.9408 13.3467 86.9408 14.1748V17.9152H85.5423V13.424C85.5423 12.8679 85.529 12.2718 85.4903 11.6251H86.7206L86.786 12.5959H86.8247C87.201 11.9238 87.9643 11.4971 88.8196 11.4971C90.1407 11.4971 91.008 12.5065 91.008 14.1494L91.0067 17.9152ZM94.8631 17.9152H93.4634V8.74072H94.8631V17.9152ZM99.9619 18.0579C98.1245 18.0579 96.9315 16.6858 96.9315 14.8228C96.9315 12.8813 98.1485 11.4971 100.065 11.4971C101.878 11.4971 103.095 12.8039 103.095 14.7202C103.096 16.6858 101.839 18.0579 99.9619 18.0579ZM100.014 12.5185C99.0038 12.5185 98.3566 13.4627 98.3566 14.7828C98.3566 16.0777 99.0185 17.0218 99.9993 17.0218C100.984 17.0218 101.643 16.0123 101.643 14.7562C101.645 13.476 100.999 12.5185 100.014 12.5185ZM108.609 17.9152L108.507 17.1912H108.47C108.043 17.7739 107.42 18.0579 106.63 18.0579C105.502 18.0579 104.702 17.2685 104.702 16.207C104.702 14.6548 106.048 13.8521 108.379 13.8521V13.736C108.379 12.9079 107.94 12.4932 107.073 12.4932C106.452 12.4932 105.908 12.6492 105.429 12.9599L105.145 12.0411C105.727 11.6784 106.452 11.4971 107.305 11.4971C108.949 11.4971 109.779 12.3639 109.779 14.0988V16.415C109.779 17.0498 109.807 17.5419 109.87 17.9166L108.609 17.9152ZM108.417 14.7828C106.863 14.7828 106.084 15.1589 106.084 16.051C106.084 16.7111 106.486 17.0338 107.044 17.0338C107.755 17.0338 108.417 16.4911 108.417 15.7536V14.7828ZM116.57 17.9152L116.505 16.9058H116.466C116.064 17.6685 115.389 18.0579 114.446 18.0579C112.928 18.0579 111.805 16.7244 111.805 14.8482C111.805 12.8813 112.97 11.4957 114.56 11.4957C115.402 11.4957 115.999 11.7798 116.335 12.3505H116.363V8.74072H117.763V16.2204C117.763 16.8284 117.778 17.3978 117.815 17.9152H116.57ZM116.363 14.2148C116.363 13.3347 115.78 12.5839 114.89 12.5839C113.853 12.5839 113.219 13.5027 113.219 14.7962C113.219 16.0643 113.877 16.9325 114.862 16.9325C115.741 16.9325 116.363 16.1684 116.363 15.2629V14.2148ZM126.638 18.0579C124.801 18.0579 123.609 16.6858 123.609 14.8228C123.609 12.8813 124.826 11.4971 126.742 11.4971C128.556 11.4971 129.773 12.8039 129.773 14.7202C129.774 16.6858 128.518 18.0579 126.638 18.0579ZM126.69 12.5185C125.681 12.5185 125.034 13.4627 125.034 14.7828C125.034 16.0777 125.695 17.0218 126.677 17.0218C127.662 17.0218 128.321 16.0123 128.321 14.7562C128.323 13.476 127.676 12.5185 126.69 12.5185ZM137.293 17.9152H135.894V14.3041C135.894 13.192 135.467 12.6346 134.625 12.6346C133.796 12.6346 133.227 13.3467 133.227 14.1748V17.9152H131.828V13.424C131.828 12.8679 131.814 12.2718 131.776 11.6251H133.006L133.071 12.5959H133.11C133.485 11.9238 134.25 11.4957 135.104 11.4957C136.425 11.4957 137.293 12.5052 137.293 14.1481V17.9152ZM146.702 12.6746H145.164V15.7283C145.164 16.5057 145.433 16.8938 145.978 16.8938C146.225 16.8938 146.431 16.8671 146.598 16.8284L146.637 17.8899C146.366 17.9939 146.003 18.0459 145.552 18.0459C144.45 18.0459 143.791 17.4378 143.791 15.8456V12.6746H142.873V11.6264H143.791V10.4743L145.164 10.0596V11.6251H146.702V12.6746ZM154.106 17.9152H152.708V14.3308C152.708 13.2053 152.283 12.6359 151.439 12.6359C150.715 12.6359 150.04 13.128 150.04 14.1241V17.9152H148.643V8.74072H150.04V12.5185H150.068C150.508 11.8331 151.146 11.4957 151.96 11.4957C153.292 11.4957 154.106 12.5305 154.106 14.1748V17.9152ZM161.69 15.1069H157.494C157.52 16.2977 158.309 16.9698 159.477 16.9698C160.097 16.9698 160.668 16.8658 161.173 16.6724L161.39 17.6432C160.795 17.9019 160.094 18.0313 159.279 18.0313C157.311 18.0313 156.146 16.7884 156.146 14.8615C156.146 12.9333 157.339 11.4837 159.122 11.4837C160.73 11.4837 161.738 12.6746 161.738 14.4735C161.747 14.6858 161.731 14.8984 161.69 15.1069ZM160.408 14.1108C160.408 13.14 159.918 12.4545 159.024 12.4545C158.221 12.4545 157.586 13.1533 157.495 14.1108H160.408Z" fill="white"/>
</g>
<defs>
<linearGradient id="paint0_linear_33_23" x1="132.052" y1="53.4696" x2="132.052" y2="-138.848" gradientUnits="userSpaceOnUse">
<stop stop-color="#1A1A1A" stop-opacity="0.1"/>
<stop offset="0.123" stop-color="#212121" stop-opacity="0.151"/>
<stop offset="0.308" stop-color="#353535" stop-opacity="0.227"/>
<stop offset="0.532" stop-color="#575757" stop-opacity="0.318"/>
<stop offset="0.783" stop-color="#858585" stop-opacity="0.421"/>
<stop offset="1" stop-color="#B3B3B3" stop-opacity="0.51"/>
</linearGradient>
<clipPath id="clip0_33_23">
<rect width="180" height="53.33" fill="white"/>
</clipPath>
</defs>
</svg>
