<svg width="180" height="54" viewBox="0 0 180 54" fill="none" xmlns="http://www.w3.org/2000/svg">
<g clip-path="url(#clip0_33_14)">
<path d="M173.33 53.333H6.66998C3.00338 53.333 0.003479 50.3331 0.003479 46.6665V6.66748C0.003479 3.00088 3.00338 0.000976562 6.66998 0.000976562H173.33C176.997 0.000976562 179.996 3.00088 179.996 6.66748V46.6665C179.996 50.3331 176.997 53.333 173.33 53.333Z" fill="#100F0D"/>
<path d="M173.33 0.000976562H6.66998C3.00338 0.000976562 0.003479 3.00088 0.003479 6.66748V46.6665C0.003479 50.3331 3.00338 53.333 6.66998 53.333H173.33C176.997 53.333 179.996 50.3331 179.996 46.6665V6.66748C179.996 3.00088 176.997 0.000976562 173.33 0.000976562ZM173.33 1.06708C176.418 1.06708 178.93 3.57958 178.93 6.66748V46.6665C178.93 49.7544 176.418 52.2669 173.33 52.2669H6.66998C3.58208 52.2669 1.07068 49.7544 1.07068 46.6665V6.66748C1.07068 3.57958 3.58208 1.06708 6.66998 1.06708H173.33Z" fill="#A2A2A1"/>
<path d="M142.58 39.9998H145.068V23.3308H142.58V39.9998ZM164.989 29.3358L162.137 36.5622H162.052L159.092 29.3358H156.412L160.852 39.4358L158.32 45.0543H160.915L167.756 29.3363L164.989 29.3358ZM150.879 38.1064C150.066 38.1064 148.928 37.6985 148.928 36.6908C148.928 35.4043 150.344 34.9111 151.566 34.9111C152.659 34.9111 153.175 35.1466 153.839 35.4684C153.646 37.0126 152.316 38.1063 150.879 38.1063L150.879 38.1064ZM151.18 28.9712C149.379 28.9712 147.514 29.7649 146.742 31.5233L148.95 32.4451C149.422 31.5233 150.3 31.2233 151.223 31.2233C152.51 31.2233 153.818 31.9946 153.839 33.3675V33.5389C153.388 33.2815 152.423 32.8957 151.244 32.8957C148.863 32.8957 146.44 34.2034 146.44 36.6481C146.44 38.8783 148.392 40.3152 150.579 40.3152C152.251 40.3152 153.175 39.5646 153.752 38.6851H153.839V39.9725H156.242V33.5815C156.242 30.6222 154.031 28.9712 151.18 28.9712V28.9712ZM135.804 31.3649H132.266V25.6516H135.804C137.664 25.6516 138.72 27.1912 138.72 28.5082C138.72 29.7999 137.664 31.3649 135.804 31.3649ZM135.74 23.3312H129.779V40.0002H132.266V33.6853H135.74C138.498 33.6853 141.208 31.6895 141.208 28.5088C141.208 25.3287 138.498 23.3319 135.74 23.3319L135.74 23.3312ZM103.233 38.1092C101.515 38.1092 100.076 36.6696 100.076 34.6942C100.076 32.6958 101.515 31.2359 103.233 31.2359C104.93 31.2359 106.262 32.6959 106.262 34.6942C106.262 36.6696 104.93 38.1092 103.233 38.1092ZM106.09 30.2689H106.004C105.446 29.6032 104.371 29.0017 103.019 29.0017C100.183 29.0017 97.5839 31.4938 97.5839 34.6942C97.5839 37.8728 100.183 40.343 103.019 40.343C104.371 40.343 105.446 39.7414 106.004 39.0545H106.09V39.8701C106.09 42.0404 104.93 43.1997 103.061 43.1997C101.537 43.1997 100.592 42.1044 100.205 41.1809L98.0356 42.0829C98.658 43.5859 100.312 45.4339 103.062 45.4339C105.983 45.4339 108.454 43.7151 108.454 39.5262V29.3452H106.09L106.09 30.2689ZM110.172 39.9993H112.663V23.3303H110.172V39.9993ZM116.336 34.5005C116.272 32.3094 118.034 31.1927 119.301 31.1927C120.289 31.1927 121.126 31.6869 121.406 32.3953L116.336 34.5005ZM124.069 32.6099C123.596 31.3433 122.157 29.0017 119.215 29.0017C116.293 29.0017 113.866 31.3 113.866 34.6724C113.866 37.8515 116.272 40.3431 119.493 40.3431C122.092 40.3431 123.597 38.7541 124.22 37.8301L122.287 36.5411C121.642 37.4864 120.762 38.1093 119.493 38.1093C118.227 38.1093 117.324 37.5292 116.745 36.3907L124.327 33.2548L124.069 32.6099ZM63.6598 30.7417V33.1474H69.4163C69.2445 34.5006 68.7934 35.4885 68.1059 36.176C67.2679 37.0134 65.9576 37.9374 63.6597 37.9374C60.1154 37.9374 57.3447 35.0807 57.3447 31.5365C57.3447 27.9923 60.1154 25.1352 63.6597 25.1352C65.5715 25.1352 66.9674 25.8872 67.9985 26.8538L69.6959 25.1565C68.2563 23.782 66.3449 22.7295 63.6597 22.7295C58.8045 22.7295 54.7234 26.6819 54.7234 31.5365C54.7234 36.3906 58.8045 40.3431 63.6597 40.3431C66.2799 40.3431 68.2564 39.4838 69.8027 37.8729C71.3923 36.2833 71.8865 34.0495 71.8865 32.2449C71.8865 31.687 71.8432 31.1715 71.7573 30.7417H63.6598ZM78.4318 38.1092C76.713 38.1092 75.2308 36.6915 75.2308 34.6724C75.2308 32.6318 76.713 31.236 78.4318 31.236C80.1499 31.236 81.6321 32.6318 81.6321 34.6724C81.6321 36.6915 80.1499 38.1092 78.4318 38.1092ZM78.4318 29.0017C75.2948 29.0017 72.7391 31.3859 72.7391 34.6724C72.7391 37.9374 75.2948 40.3431 78.4318 40.3431C81.5676 40.3431 84.1238 37.9374 84.1238 34.6724C84.1238 31.3859 81.5676 29.0017 78.4318 29.0017ZM90.8488 38.1092C89.1312 38.1092 87.6485 36.6915 87.6485 34.6724C87.6485 32.6318 89.1313 31.236 90.8488 31.236C92.5676 31.236 94.0493 32.6318 94.0493 34.6724C94.0493 36.6915 92.5676 38.1092 90.8488 38.1092ZM90.8488 29.0017C87.713 29.0017 85.1573 31.3859 85.1573 34.6724C85.1573 37.9374 87.713 40.3431 90.8488 40.3431C93.9858 40.3431 96.5415 37.9374 96.5415 34.6724C96.5415 31.3859 93.9858 29.0017 90.8488 29.0017Z" fill="white"/>
<path d="M27.622 25.8991L13.428 40.9651C13.4285 40.9682 13.4296 40.9708 13.4301 40.974C13.8654 42.61 15.3597 43.8146 17.1331 43.8146C17.842 43.8146 18.5076 43.6229 19.0784 43.2865L19.1237 43.2599L35.1017 34.0399L27.6227 25.8989" fill="#EB3131"/>
<path d="M41.983 23.334L41.9694 23.3247L35.0712 19.3257L27.2995 26.2413L35.0982 34.039L41.96 30.0798C43.163 29.4303 43.9797 28.1621 43.9797 26.6996C43.9797 25.2476 43.174 23.9857 41.9829 23.3341" fill="#F6B60B"/>
<path d="M13.426 12.3701C13.3407 12.6848 13.2958 13.0144 13.2958 13.3566V39.9796C13.2958 40.3212 13.3402 40.652 13.4266 40.9655L28.1106 26.2845L13.4266 12.3705" fill="#5778C5"/>
<path d="M27.727 26.668L35.0743 19.3229L19.1143 10.0695C18.5342 9.72201 17.8571 9.52148 17.1326 9.52148C15.3592 9.52148 13.8629 10.7283 13.4275 12.3662C13.4269 12.3678 13.4269 12.3689 13.4269 12.3703L27.7269 26.6683" fill="#3BAD49"/>
<path d="M63.193 13.0421H59.3035V14.0047H62.2181C62.1389 14.7901 61.8264 15.4068 61.2993 15.8547C60.7723 16.3026 60.0993 16.5276 59.3035 16.5276C58.4306 16.5276 57.691 16.2234 57.0849 15.6193C56.4911 15.0027 56.1891 14.2401 56.1891 13.3214C56.1891 12.4028 56.4911 11.6402 57.0849 11.0236C57.6911 10.4195 58.4306 10.1174 59.3035 10.1174C59.7515 10.1174 60.1786 10.1945 60.5701 10.3633C60.9619 10.5319 61.2764 10.7674 61.5222 11.0695L62.2618 10.3299C61.9264 9.9486 61.5014 9.657 60.9742 9.44448C60.4472 9.23195 59.8972 9.12995 59.3034 9.12995C58.1389 9.12995 57.1515 9.53407 56.3452 10.3404C55.539 11.1486 55.1348 12.1445 55.1348 13.3215C55.1348 14.4985 55.5389 15.4965 56.3452 16.3028C57.1515 17.1089 58.1389 17.5132 59.3034 17.5132C60.5263 17.5132 61.5013 17.1214 62.2513 16.3256C62.9117 15.6632 63.2492 14.7674 63.2492 13.6466C63.2492 13.457 63.2262 13.2548 63.1929 13.0423L63.193 13.0421ZM64.6998 9.30894V17.3338H69.385V16.3484H65.731V13.8027H69.0268V12.8402H65.731V10.2965H69.385V9.30891L64.6998 9.30894ZM75.9548 10.2965V9.30894H70.4403V10.2965H72.682V17.3338H73.7132V10.2965H75.9548ZM80.9473 9.30894H79.9161V17.3338H80.9473V9.30894ZM87.7539 10.2965V9.30894H82.2395V10.2965H84.481V17.3338H85.5122V10.2965H87.7539ZM98.1599 10.3528C97.3641 9.53401 96.3891 9.12988 95.2245 9.12988C94.0579 9.12988 93.083 9.534 92.2871 10.3403C91.4913 11.1361 91.0997 12.134 91.0997 13.3214C91.0997 14.5088 91.4913 15.5068 92.2871 16.3027C93.083 17.1088 94.0579 17.5131 95.2245 17.5131C96.3786 17.5131 97.364 17.1088 98.1599 16.3027C98.9558 15.5068 99.3473 14.5089 99.3473 13.3214C99.3473 12.1444 98.9557 11.1485 98.1599 10.3528ZM93.0267 11.0236C93.6204 10.4194 94.3496 10.1173 95.2245 10.1173C96.0974 10.1173 96.8266 10.4195 97.4099 11.0236C98.0036 11.6173 98.2952 12.3922 98.2952 13.3214C98.2952 14.2527 98.0036 15.0255 97.4099 15.6193C96.8266 16.2234 96.0974 16.5275 95.2245 16.5275C94.3496 16.5275 93.6204 16.2234 93.0267 15.6193C92.4454 15.013 92.1538 14.2527 92.1538 13.3214C92.1538 12.3922 92.4454 11.6298 93.0267 11.0236ZM101.797 12.3361L101.754 10.7881H101.797L105.876 17.3338H106.953V9.30886H105.922V14.0046L105.966 15.5526H105.922L102.022 9.30886H100.766V17.3338H101.797V12.3361Z" fill="white" stroke="white" stroke-width="0.26666" stroke-miterlimit="10"/>
</g>
<defs>
<clipPath id="clip0_33_14">
<rect width="180" height="53.333" fill="white"/>
</clipPath>
</defs>
</svg>
