<svg width="70" height="70" viewBox="0 0 70 70" fill="none" xmlns="http://www.w3.org/2000/svg">
<g clip-path="url(#clip0_33_4)">
<path d="M35 0C15.668 0 0 15.668 0 35C0 54.3184 15.668 70 35 70C54.332 70 70 54.3184 70 35C70 15.668 54.332 0 35 0ZM28.793 48.8086C25.0469 48.8086 21.3008 47.5645 18.416 45.0762C14.875 42.0273 12.7695 37.8574 12.4961 33.3457C12.2363 28.9844 13.7266 24.7598 16.6934 21.4785C20.0156 17.8008 25.9902 12.0723 26.2363 11.8262C27.8496 10.2812 30.4336 10.3359 31.9785 11.9629C33.5098 13.5762 33.4688 16.1602 31.8418 17.7051C31.7871 17.7598 25.8398 23.4746 22.6953 26.9336C21.2188 28.5879 20.4668 30.6797 20.6035 32.8535C20.7539 35.1504 21.8613 37.3105 23.7207 38.9375C26.1816 41.0703 31.0488 41.5352 34.084 38.8145C35.8887 37.1875 38.0898 34.8086 38.1035 34.7676C39.6211 33.1133 42.1777 33.0176 43.832 34.5352C45.4863 36.0527 45.582 38.6094 44.0645 40.2773C43.9551 40.3867 41.5762 42.9707 39.4844 44.8574C36.5449 47.4961 32.6758 48.8086 28.793 48.8086ZM53.3203 48.5215C49.998 52.1992 44.0234 57.9277 43.7773 58.1738C42.9844 58.9258 41.9727 59.3086 40.9746 59.3086C39.9082 59.3086 38.8281 58.8848 38.0352 58.0508C36.4902 56.4238 36.5449 53.8398 38.1719 52.2949C38.2266 52.2402 44.1875 46.5254 47.3184 43.0664C48.7949 41.4121 49.5469 39.3203 49.4102 37.1465C49.2598 34.8496 48.1523 32.6758 46.293 31.0625C43.832 28.9297 38.9648 28.4648 35.9297 31.1855C34.1113 32.8125 31.9238 35.2051 31.9102 35.2324C30.3926 36.8867 27.8359 36.9824 26.1816 35.4648C24.5273 33.9473 24.418 31.377 25.9492 29.7227C26.0586 29.6133 28.4238 27.0293 30.5293 25.1289C36.3125 19.9473 45.7598 19.8379 51.6113 24.8965C55.1523 27.959 57.2578 32.1289 57.5312 36.6406C57.7773 41.0293 56.2734 45.2539 53.3203 48.5215Z" fill="white" fill-opacity="0.6"/>
</g>
<defs>
<clipPath id="clip0_33_4">
<rect width="70" height="70" fill="white"/>
</clipPath>
</defs>
</svg>
