<?xml version="1.0" standalone="no"?>
<!DOCTYPE svg PUBLIC "-//W3C//DTD SVG 20010904//EN"
 "http://www.w3.org/TR/2001/REC-SVG-20010904/DTD/svg10.dtd">
<svg version="1.0" xmlns="http://www.w3.org/2000/svg"
 width="512.000000pt" height="512.000000pt" viewBox="0 0 512.000000 512.000000"
 preserveAspectRatio="xMidYMid meet">
<metadata>
Created by potrace 1.14, written by Peter Selinger 2001-2017
</metadata>
<g transform="translate(0.000000,512.000000) scale(0.100000,-0.100000)"
fill="#000000" stroke="none">
<path d="M1826 5109 c-53 -13 -121 -47 -176 -87 -79 -58 -963 -946 -1112
-1117 -194 -223 -328 -537 -365 -857 -9 -80 -10 -303 -1 -388 24 -241 112
-497 251 -725 271 -444 723 -742 1236 -812 107 -15 457 -7 514 12 7 2 31 6 55
9 24 3 47 8 51 10 4 3 23 8 42 11 69 12 217 67 326 121 193 95 393 253 620
489 191 198 284 313 310 387 33 90 28 220 -10 302 -38 81 -89 141 -161 188
-143 92 -303 94 -438 4 -43 -29 -200 -172 -378 -346 -205 -200 -281 -253 -432
-302 -173 -55 -332 -56 -541 -3 -11 2 -56 22 -101 44 -216 105 -367 278 -451
520 -78 222 -49 516 67 688 15 23 28 45 28 49 0 13 108 139 207 241 54 56 254
260 444 455 445 454 443 452 480 526 106 211 -15 481 -256 568 -51 19 -159 26
-209 13z"/>
<path d="M3000 4000 c-25 -4 -63 -10 -85 -14 -22 -3 -49 -8 -60 -10 -11 -3
-38 -10 -61 -15 -134 -33 -329 -120 -467 -208 -203 -129 -431 -338 -649 -593
-26 -30 -59 -68 -74 -85 -74 -84 -106 -229 -76 -345 56 -220 271 -366 482
-326 44 9 133 49 168 77 30 23 219 201 387 364 138 133 205 186 296 231 114
56 204 76 354 77 254 1 442 -68 602 -220 54 -51 153 -177 153 -195 0 -5 8 -22
18 -36 27 -39 77 -166 97 -246 22 -89 26 -240 9 -319 -31 -145 -79 -247 -181
-382 -57 -75 -212 -240 -525 -559 -548 -560 -544 -555 -570 -616 -56 -129 -21
-320 80 -432 139 -154 366 -189 529 -82 92 59 1113 1090 1207 1217 175 237
278 501 314 807 10 82 8 336 -3 415 -16 119 -69 327 -100 387 -8 17 -15 35
-15 41 0 8 -75 161 -111 227 -83 149 -249 343 -404 469 -221 181 -515 318
-765 356 -25 4 -54 10 -65 13 -32 8 -436 10 -485 2z"/>
</g>
</svg>
